<svg xmlns="http://www.w3.org/2000/svg" viewBox="0 0 600 140"><defs><style>.cls-1{fill:#ea963e;}.cls-2{fill:none;stroke:#ea963e;stroke-miterlimit:10;stroke-width:2px;}</style></defs><title>dp-header-trees</title><g id="Menu"><polygon class="cls-1" points="531.74 55.56 533.24 56.96 544.27 45.44 555.27 56.99 556.78 55.59 544.28 42.42 531.74 55.56"/><polygon class="cls-1" points="533.79 46.21 535.29 47.62 544.27 38.15 553.21 47.65 554.72 46.25 544.28 35.13 533.79 46.21"/><polygon class="cls-1" points="535.85 36.73 537.35 38.13 544.27 30.72 551.16 38.16 552.67 36.77 544.28 27.7 535.85 36.73"/><path class="cls-2" d="M544.26,28.7v74.73"/><polygon class="cls-1" points="559.83 34.99 561.33 36.4 572.36 24.87 583.36 36.43 584.87 35.03 572.37 21.85 559.83 34.99"/><polygon class="cls-1" points="561.88 25.65 563.39 27.05 572.36 17.59 581.31 27.09 582.82 25.69 572.37 14.57 561.88 25.65"/><polygon class="cls-1" points="563.94 16.16 565.44 17.57 572.36 10.16 579.25 17.6 580.76 16.2 572.37 7.14 563.94 16.16"/><path class="cls-2" d="M338.33,27.42S10.17,26.51,10.17,75.18s141.67,45.23,266.37,45.23,295.81-4.93,295.81-37.07V8.14"/></g></svg>