<svg xmlns="http://www.w3.org/2000/svg" viewBox="0 0 255.31 125.02"><defs><style>.cls-1{fill:#dd4f41;}.cls-2{fill:none;}.cls-3{fill:#ea963e;}</style></defs><title>dp-logo</title><g id="Logo"><path class="cls-1" d="M95.61,75.29a7.28,7.28,0,0,1-.5,2.78,5.77,5.77,0,0,1-1.45,2.12,6.55,6.55,0,0,1-2.37,1.36,10,10,0,0,1-3.24.48H83.3V68.76h5a9.66,9.66,0,0,1,3.12.46,6.46,6.46,0,0,1,2.29,1.33,5.6,5.6,0,0,1,1.42,2.06A7,7,0,0,1,95.61,75.29Zm-3.4.13a3.91,3.91,0,0,0-1-3,4.45,4.45,0,0,0-3.11-1h-1.4v7.84h1.57a4.23,4.23,0,0,0,2.91-1A3.75,3.75,0,0,0,92.21,75.42Z"/><path class="cls-1" d="M102,82V68.76h9.69v2.71H105.3V74h5.13v2.72H105.3v2.59h6.39V82Z"/><path class="cls-1" d="M122.67,79.56a2.94,2.94,0,0,0,1.45-.31,1,1,0,0,0,.56-.94.88.88,0,0,0-.18-.57,1.5,1.5,0,0,0-.52-.42,5.16,5.16,0,0,0-.85-.34L122,76.63a11.14,11.14,0,0,1-1.48-.49,5.75,5.75,0,0,1-1.38-.75,3.43,3.43,0,0,1-1-1.15,3.37,3.37,0,0,1-.39-1.68,3.75,3.75,0,0,1,1.31-3,5.67,5.67,0,0,1,3.78-1.12,10.83,10.83,0,0,1,2.8.32,8.84,8.84,0,0,1,2.17.85l-.65,2.78a10.35,10.35,0,0,0-2.15-.85,8.12,8.12,0,0,0-2.15-.32c-1.16,0-1.74.38-1.74,1.13a.81.81,0,0,0,.22.56,1.82,1.82,0,0,0,.59.42,6.4,6.4,0,0,0,.89.34l1.11.33a13.24,13.24,0,0,1,1.5.51,5.6,5.6,0,0,1,1.34.75,3.59,3.59,0,0,1,1,1.13A3.41,3.41,0,0,1,128,78a4.17,4.17,0,0,1-.36,1.74,3.93,3.93,0,0,1-1.05,1.36,5,5,0,0,1-1.7.89,7.81,7.81,0,0,1-2.33.32,11.86,11.86,0,0,1-2.83-.34,9.61,9.61,0,0,1-2.29-.87l.64-2.81a11.23,11.23,0,0,0,2.16.88A8,8,0,0,0,122.67,79.56Z"/><path class="cls-1" d="M134.49,82V68.76h3.38V82Z"/><path class="cls-1" d="M162.27,82V68.76H172v2.71h-6.39V74h5.14v2.72h-5.14v2.59H172V82Z"/><path class="cls-2" d="M186.2,74.9a1.91,1.91,0,0,0,.63-1.55c0-1.34-.86-2-2.57-2H182.9v4.14l1.36,0A3,3,0,0,0,186.2,74.9Z"/><polygon class="cls-2" points="199.25 76.47 202.71 76.47 201.01 71.27 199.25 76.47"/><path class="cls-3" d="M183,78.09l1.29,0a6.79,6.79,0,0,0,4.39-1.24,4.32,4.32,0,0,0,1.51-3.56,4.72,4.72,0,0,0-.36-1.87,3.87,3.87,0,0,0-1.08-1.46A5.32,5.32,0,0,0,187,69a7.9,7.9,0,0,0-2.46-.34h-4.9V81.93H183Zm-.09-6.76h1.36c1.71,0,2.57.68,2.57,2a1.91,1.91,0,0,1-.63,1.55,3,3,0,0,1-1.94.55l-1.36,0Z"/><polygon class="cls-3" points="211.14 71.48 215.37 71.48 215.37 81.93 218.74 81.93 218.74 71.48 222.97 71.48 222.97 68.66 211.14 68.66 211.14 71.48"/><polygon class="cls-3" points="237.79 68.66 237.79 73.82 232.46 73.82 232.46 68.66 229.09 68.66 229.09 81.93 232.46 81.93 232.46 76.67 237.79 76.67 237.79 81.93 241.17 81.93 241.17 68.66 237.79 68.66"/><polygon class="cls-3" points="58.75 35.1 63.21 50.35 63.35 11.03 58.75 35.1"/><polygon class="cls-1" points="67.78 35.04 68.94 44.02 74.79 30.11 67.78 35.04"/><polygon class="cls-1" points="82.42 45.02 77 52.18 90.89 46.37 82.42 45.02"/><polygon class="cls-3" points="85.91 53.34 70.69 57.88 109.95 57.87 85.91 53.34"/><polygon class="cls-3" points="67.83 80.66 63.22 65.41 63.37 104.73 67.83 80.66"/><polygon class="cls-1" points="58.72 80.64 57.51 71.68 51.71 85.57 58.72 80.64"/><polygon class="cls-1" points="43.95 70.66 49.37 63.52 35.49 69.31 43.95 70.66"/><polygon class="cls-3" points="40.42 62.3 55.65 57.84 16.39 57.7 40.42 62.3"/><polygon class="cls-1" points="40.45 53.23 49.39 52.08 35.52 46.22 40.45 53.23"/><polygon class="cls-1" points="76.07 38.67 73.77 47.36 88.56 32.62 76.07 38.67"/><polygon class="cls-1" points="37.86 83.09 50.34 77.05 52.63 68.37 37.86 83.09"/><polygon class="cls-1" points="37.95 32.44 44 44.94 52.68 47.25 37.95 32.44"/><polygon class="cls-1" points="50.43 38.59 57.56 44.03 51.78 30.12 50.43 38.59"/><path class="cls-3" d="M202.76,68.66h-1.6c0,.07-.1.63-.28,1.52-.06.33-.14.71-.25,1.16l1.68,5.13h-3.17c0,.12-.09.24-.14.36-.24.68-.51,1.39-.81,2.11,0,.06,0,.11-.07.17h4.93l1,2.82h3.36Z"/><path class="cls-1" d="M197.91,68.66a41.57,41.57,0,0,1-4.16,12.23c-4.2,7.87-10.17,11.86-17.73,11.86-11.21,0-18.56-9.19-20.46-11.87l-2.66-4.1a4.18,4.18,0,0,0,2-1.5,3.93,3.93,0,0,0,.69-2.32,3.78,3.78,0,0,0-1.36-3.07,6.09,6.09,0,0,0-4-1.13h-5.33V82h3.38V77.7l1.55-.13s1.75,3,2.49,4.24S161.16,95.94,176,95.94c8.73,0,15.85-4.71,20.58-13.62l.2-.39a47.26,47.26,0,0,0,4.36-13.27Zm-46.32,5.93a2.92,2.92,0,0,1-1.66.56l-1.7,0V71.43h1.43c1.67,0,2.5.58,2.5,1.74A1.72,1.72,0,0,1,151.59,74.59Z"/></g></svg>